<svg width="20" height="24" viewBox="0 0 20 24" fill="none" xmlns="http://www.w3.org/2000/svg">
<path fill-rule="evenodd" clip-rule="evenodd" d="M19.6948 7.58712C19.6948 5.77429 18.2187 4.30469 16.3977 4.30469H7.60544C5.78451 4.30469 4.30835 5.77429 4.30835 7.58712V20.7169C4.30835 22.5297 5.78451 23.9993 7.60544 23.9993H16.3977C18.2187 23.9993 19.6948 22.5297 19.6948 20.7169V7.58712ZM17.4967 7.58712C17.4967 6.98285 17.0047 6.49298 16.3977 6.49298H7.60544C6.99847 6.49298 6.50641 6.98285 6.50641 7.58712V20.7169C6.50641 21.3211 6.99847 21.811 7.60544 21.811H16.3977C17.0047 21.811 17.4967 21.3211 17.4967 20.7169V7.58712Z" fill="#C1F6FF"/>
<path d="M3.29709 2.18829H14.2874C14.8944 2.18829 15.3864 1.69842 15.3864 1.09414C15.3864 0.48987 14.8944 0 14.2874 0H3.29709C1.47616 0 0 1.4696 0 3.28243V18.6005C0 19.2048 0.492057 19.6946 1.09903 19.6946C1.706 19.6946 2.19806 19.2048 2.19806 18.6005V3.28243C2.19806 2.67816 2.69012 2.18829 3.29709 2.18829Z" fill="#C1F6FF"/>
</svg>
