<svg width="20" height="20" viewBox="0 0 20 20" fill="none" xmlns="http://www.w3.org/2000/svg">
<g clip-path="url(#clip0_7463_5325)">
<path d="M10 20C15.5228 20 20 15.5228 20 10C20 4.47715 15.5228 0 10 0C4.47715 0 0 4.47715 0 10C0 15.5228 4.47715 20 10 20Z" fill="#FF0420"/>
<path d="M7.08415 12.6579C6.48815 12.6579 6.00015 12.5179 5.62015 12.2379C5.24415 11.9539 5.05615 11.5459 5.05615 11.0219C5.05615 10.9099 5.06815 10.7779 5.09215 10.6179C5.15615 10.2579 5.24815 9.82591 5.36815 9.31791C5.70815 7.94191 6.58815 7.25391 8.00415 7.25391C8.38815 7.25391 8.73615 7.31791 9.04015 7.44991C9.34415 7.57391 9.58415 7.76591 9.76015 8.02191C9.93615 8.27391 10.0242 8.57391 10.0242 8.92191C10.0242 9.02591 10.0122 9.15791 9.98815 9.31791C9.91215 9.76191 9.82415 10.1979 9.71615 10.6179C9.54015 11.3019 9.24015 11.8179 8.80815 12.1579C8.38015 12.4939 7.80415 12.6579 7.08415 12.6579ZM7.19215 11.5779C7.47215 11.5779 7.70815 11.4939 7.90415 11.3299C8.10415 11.1659 8.24815 10.9139 8.33215 10.5699C8.44815 10.0979 8.53615 9.68991 8.59615 9.33791C8.61615 9.23391 8.62815 9.12591 8.62815 9.01391C8.62815 8.55791 8.39215 8.32991 7.91615 8.32991C7.63615 8.32991 7.39615 8.41391 7.19615 8.57791C7.00015 8.74191 6.86015 8.99391 6.77615 9.33791C6.68415 9.67391 6.59615 10.0819 6.50415 10.5699C6.48415 10.6699 6.47215 10.7739 6.47215 10.8859C6.46815 11.3499 6.71215 11.5779 7.19215 11.5779Z" fill="white"/>
<path d="M10.3718 12.5841C10.3158 12.5841 10.2758 12.5681 10.2438 12.5321C10.2198 12.4921 10.2118 12.4481 10.2198 12.3961L11.2558 7.51612C11.2638 7.46012 11.2918 7.41613 11.3398 7.38013C11.3838 7.34413 11.4318 7.32812 11.4838 7.32812H13.4798C14.0358 7.32812 14.4798 7.44413 14.8158 7.67213C15.1558 7.90413 15.3278 8.23612 15.3278 8.67212C15.3278 8.79612 15.3118 8.92812 15.2838 9.06412C15.1598 9.64012 14.9078 10.0641 14.5238 10.3401C14.1478 10.6161 13.6318 10.7521 12.9758 10.7521H11.9638L11.6198 12.3961C11.6078 12.4521 11.5838 12.4961 11.5358 12.5321C11.4918 12.5681 11.4438 12.5841 11.3918 12.5841H10.3718ZM13.0278 9.71612C13.2398 9.71612 13.4198 9.66012 13.5758 9.54412C13.7358 9.42812 13.8398 9.26412 13.8918 9.04812C13.9078 8.96412 13.9158 8.88812 13.9158 8.82412C13.9158 8.68012 13.8718 8.56812 13.7878 8.49212C13.7038 8.41212 13.5558 8.37212 13.3518 8.37212H12.4518L12.1678 9.71612H13.0278Z" fill="white"/>
</g>
<defs>
<clipPath id="clip0_7463_5325">
<rect width="20" height="20" fill="white"/>
</clipPath>
</defs>
</svg>
