<svg width="16" height="16" viewBox="0 0 16 16" fill="none" xmlns="http://www.w3.org/2000/svg">
<circle cx="8" cy="8" r="8" fill="#02E2AC"/>
<path fill-rule="evenodd" clip-rule="evenodd" d="M10.1155 6.75334C10.4451 7.21534 10.624 7.77634 10.6193 8.34205C10.6193 8.89833 10.4404 9.45461 10.1155 9.90718L10.8029 10.4305C11.2408 9.82704 11.4809 9.09161 11.4809 8.34676C11.4856 7.55948 11.2267 6.78634 10.7511 6.16406L10.3569 6.51944L10.1155 6.75334Z" fill="#0E0333"/>
<path fill-rule="evenodd" clip-rule="evenodd" d="M11.415 10.8915L9.10312 9.1331C9.26792 8.91624 9.36209 8.65224 9.37621 8.37882C9.38563 8.10539 9.315 7.83668 9.16904 7.60568L10.2755 6.60626L11.4338 5.52198C11.5092 5.45127 11.5139 5.3287 11.4385 5.25327L11.2784 5.09298C10.4545 4.25856 9.34325 3.77299 8.17555 3.73528L8.18026 3.09885C8.18497 3.05643 8.18026 3.014 8.17084 2.97157C8.15672 2.92914 8.13788 2.89143 8.10963 2.85843C8.08138 2.82543 8.04842 2.80186 8.00604 2.783C7.96838 2.76414 7.926 2.75471 7.88362 2.75471C7.84125 2.75471 7.79887 2.76414 7.7612 2.783C7.72353 2.80186 7.68587 2.82543 7.65762 2.85843C7.62936 2.89143 7.60582 2.92914 7.59641 2.96686C7.58228 3.00928 7.57757 3.05171 7.58699 3.09414L7.58228 3.74942C7.30448 3.77771 7.02668 3.82956 6.75829 3.90971L6.763 3.09414C6.76771 3.05171 6.763 3.00928 6.75359 2.96686C6.73946 2.92443 6.72063 2.88671 6.69238 2.85371C6.66412 2.82071 6.63117 2.79714 6.58879 2.77829C6.55112 2.75943 6.50875 2.75 6.46637 2.75C6.42399 2.75 6.38162 2.75943 6.34395 2.77829C6.30628 2.79714 6.26861 2.82071 6.24036 2.85371C6.21211 2.88671 6.18857 2.92443 6.17915 2.96214C6.16503 3.00457 6.16032 3.047 6.16973 3.08943L6.15561 4.13128C5.20449 4.55556 4.42289 5.2957 3.94733 6.2244C3.47177 7.15311 3.3211 8.21853 3.52827 9.24153C3.73545 10.2645 4.28634 11.1885 5.08678 11.8579C5.88722 12.5274 6.89484 12.9045 7.93542 12.9234L11.302 12.9375C11.4056 12.9375 11.4903 12.8526 11.4903 12.7489V11.0471C11.4903 10.9858 11.4621 10.9292 11.415 10.8915ZM8.00134 12.1031C7.17264 12.0984 6.36749 11.8202 5.71301 11.3158C5.05853 10.8067 4.58768 10.0948 4.3758 9.29338C4.16392 8.49196 4.22513 7.63868 4.5406 6.87497C4.86077 6.11126 5.42108 5.47012 6.14148 5.05527L6.13677 6.29512C6.13207 6.33755 6.13677 6.37997 6.14619 6.4224C6.16032 6.46483 6.17915 6.50255 6.2074 6.53554C6.23565 6.56854 6.26861 6.59212 6.31099 6.61097C6.34866 6.62983 6.39103 6.63926 6.43341 6.63926C6.47579 6.63926 6.51816 6.62983 6.55583 6.61097C6.5935 6.59212 6.63117 6.56854 6.65942 6.53554C6.68767 6.50255 6.71121 6.46483 6.72063 6.42712C6.73475 6.38469 6.73946 6.34226 6.73004 6.29983L6.73475 4.77713C7.1491 4.62627 7.58699 4.55556 8.02959 4.55556C8.84415 4.55556 9.63518 4.82427 10.2802 5.31455C10.3273 5.35227 10.332 5.41827 10.2897 5.4607L8.52869 7.07768C8.3686 7.01168 8.19438 6.97397 8.02017 6.97397C7.82712 6.97397 7.63407 7.01168 7.45515 7.09183C7.27623 7.17197 7.12085 7.28983 6.99372 7.43597C6.86659 7.58211 6.77242 7.75654 6.71592 7.94039C6.65942 8.12896 6.64529 8.32225 6.67354 8.51553C6.70179 8.70882 6.76771 8.89267 6.8713 9.05767C6.97489 9.22267 7.11614 9.35938 7.27623 9.46781C7.44103 9.57152 7.62466 9.64224 7.8177 9.67052C8.01075 9.69881 8.20851 9.68467 8.39214 9.62809L10.6428 11.3394C10.6663 11.3582 10.6805 11.3865 10.6805 11.4148L10.6758 12.0182C10.6758 12.0701 10.6334 12.1125 10.5816 12.1125L8.00134 12.1031ZM8.55223 8.33168C8.55223 8.43539 8.51927 8.5391 8.46277 8.62867C8.40156 8.71824 8.32151 8.78424 8.22263 8.82667C8.12376 8.8691 8.01546 8.87853 7.91658 8.85496C7.8177 8.83139 7.71883 8.78424 7.64349 8.70882C7.56815 8.63339 7.51636 8.5391 7.49753 8.43539C7.47869 8.33168 7.48811 8.22325 7.53049 8.12896C7.57286 8.02996 7.63878 7.94982 7.72824 7.88854C7.8177 7.83196 7.92129 7.79896 8.02488 7.79896C8.16613 7.79896 8.30268 7.85554 8.40156 7.95925C8.49573 8.05353 8.55223 8.18553 8.55223 8.33168Z" fill="#0E0333"/>
</svg>
