<svg width="60" height="50" viewBox="0 0 60 50" fill="none" xmlns="http://www.w3.org/2000/svg">
<path fill-rule="evenodd" clip-rule="evenodd" d="M24.9986 27.566C24.9986 27.9847 24.6514 28.3318 24.223 28.3318H0.775571C0.353388 28.3318 0 27.9889 0 27.566C0 20.7997 5.59613 15.3145 12.4993 15.3145C19.4025 15.3145 24.9986 20.7997 24.9986 27.566ZM12.4993 13.783C8.61627 13.783 5.46844 10.6976 5.46844 6.89151C5.46844 3.08543 8.61627 0 12.4993 0C16.3823 0 19.5302 3.08543 19.5302 6.89151C19.5302 10.6976 16.3823 13.783 12.4993 13.783Z" fill="#C1F6FF"/>
<path fill-rule="evenodd" clip-rule="evenodd" d="M59.906 48.7388C59.906 49.4284 59.3504 50 58.6651 50H21.1491C20.4736 50 19.9082 49.4353 19.9082 48.7388C19.9082 37.5942 28.862 28.5598 39.9071 28.5598C50.9522 28.5598 59.906 37.5942 59.906 48.7388ZM39.9071 26.0374C33.6942 26.0374 28.6577 20.9555 28.6577 14.6867C28.6577 8.41783 33.6942 3.33594 39.9071 3.33594C46.1199 3.33594 51.1565 8.41783 51.1565 14.6867C51.1565 20.9555 46.1199 26.0374 39.9071 26.0374Z" fill="#C1F6FF"/>
</svg>
