<svg width="172" height="194" viewBox="0 0 172 194" fill="none" xmlns="http://www.w3.org/2000/svg">
<path d="M82.9219 192.472L3.87698 147.264C2.09685 146.245 1 144.364 1 142.326V51.91C1 49.8722 2.09685 47.9912 3.87698 46.9724L82.9219 1.76416C84.702 0.745281 86.8958 0.745281 88.6759 1.76416L167.721 46.9724C169.501 47.9912 170.598 49.8722 170.598 51.91V142.326C170.598 144.364 169.501 146.245 167.721 147.264L88.6759 192.472C86.8958 193.491 84.702 193.491 82.9219 192.472ZM18.2619 139.038L82.9219 176.021C84.702 177.039 86.8958 177.039 88.6759 176.021L153.336 139.038C155.116 138.019 156.213 136.138 156.213 134.101V60.1394C156.213 58.1016 155.116 56.2206 153.336 55.2017L88.6759 18.2194C86.8958 17.2005 84.702 17.2005 82.9219 18.2194L18.2619 55.2017C16.4817 56.2206 15.3849 58.1016 15.3849 60.1394V134.101C15.3849 136.138 16.4817 138.019 18.2619 139.038Z" fill="url(#paint0_linear_7895_2693)"/>
<path d="M82.9201 31.3012L29.696 61.7428C27.9159 62.7617 26.819 64.6426 26.819 66.6804V124.272C26.819 128.344 29.0127 132.109 32.573 134.144L39.0462 137.845C40.0064 138.394 41.2039 137.71 41.2039 136.612V74.9098C41.2039 72.8721 42.3007 70.991 44.0809 69.9722L82.9201 47.7599C84.7002 46.7411 86.8939 46.7411 88.674 47.7599L127.513 69.9722C129.293 70.991 130.39 72.8721 130.39 74.9098V119.338C130.39 121.376 129.293 123.257 127.513 124.275L88.674 146.488C86.8939 147.507 84.7002 147.507 82.9201 146.488L69.9737 139.085C68.1935 138.066 67.0967 136.185 67.0967 134.147V89.7191C67.0967 87.6814 68.1935 85.8004 69.9737 84.7815L82.9201 77.3786C84.7002 76.3597 86.8939 76.3597 88.674 77.3786L101.62 84.7815C103.401 85.8004 104.497 87.6814 104.497 89.7191V104.528C104.497 106.566 103.401 108.447 101.62 109.466L95.1472 113.168C94.187 113.716 92.9895 113.032 92.9895 111.935V96.4024C92.9895 94.3647 91.8926 92.4837 90.1125 91.4648L87.2355 89.8189C86.3437 89.3095 85.2504 89.3095 84.3585 89.8189L80.7623 91.8745C79.4281 92.6369 78.6046 94.0511 78.6046 95.5759V127.624C78.6046 129.669 79.7122 131.557 81.5032 132.573L82.8913 133.356C84.6678 134.361 86.8507 134.357 88.6237 133.342L116.005 117.681C117.785 116.662 118.882 114.781 118.882 112.744V81.4791C118.882 79.4413 117.785 77.5603 116.005 76.5414L88.674 60.9092C86.8939 59.8903 84.7002 59.8903 82.9201 60.9092L55.5888 76.5414C53.8087 77.5603 52.7118 79.4413 52.7118 81.4791V142.359C52.7118 144.396 53.8087 146.277 55.5888 147.296L82.9201 162.929C84.7002 163.948 86.8939 163.948 88.674 162.929L141.898 132.487C143.678 131.468 144.775 129.587 144.775 127.549V66.6697C144.775 64.632 143.678 62.7509 141.898 61.7321L88.674 31.2905C86.8939 30.2716 84.7002 30.2716 82.9201 31.2905V31.3012Z" fill="url(#paint1_linear_7895_2693)"/>
<path d="M82.9219 192.472L3.87698 147.264C2.09685 146.245 1 144.364 1 142.326V51.91C1 49.8722 2.09685 47.9912 3.87698 46.9724L82.9219 1.76416C84.702 0.745281 86.8958 0.745281 88.6759 1.76416L167.721 46.9724C169.501 47.9912 170.598 49.8722 170.598 51.91V142.326C170.598 144.364 169.501 146.245 167.721 147.264L88.6759 192.472C86.8958 193.491 84.702 193.491 82.9219 192.472ZM18.2619 139.038L82.9219 176.021C84.702 177.039 86.8958 177.039 88.6759 176.021L153.336 139.038C155.116 138.019 156.213 136.138 156.213 134.101V60.1394C156.213 58.1016 155.116 56.2206 153.336 55.2017L88.6759 18.2194C86.8958 17.2005 84.702 17.2005 82.9219 18.2194L18.2619 55.2017C16.4817 56.2206 15.3849 58.1016 15.3849 60.1394V134.101C15.3849 136.138 16.4817 138.019 18.2619 139.038Z" stroke="url(#paint2_radial_7895_2693)" stroke-opacity="0.5"/>
<path d="M82.9201 31.3012L29.696 61.7428C27.9159 62.7617 26.819 64.6426 26.819 66.6804V124.272C26.819 128.344 29.0127 132.109 32.573 134.144L39.0462 137.845C40.0064 138.394 41.2039 137.71 41.2039 136.612V74.9098C41.2039 72.8721 42.3007 70.991 44.0809 69.9722L82.9201 47.7599C84.7002 46.7411 86.8939 46.7411 88.674 47.7599L127.513 69.9722C129.293 70.991 130.39 72.8721 130.39 74.9098V119.338C130.39 121.376 129.293 123.257 127.513 124.275L88.674 146.488C86.8939 147.507 84.7002 147.507 82.9201 146.488L69.9737 139.085C68.1935 138.066 67.0967 136.185 67.0967 134.147V89.7191C67.0967 87.6814 68.1935 85.8004 69.9737 84.7815L82.9201 77.3786C84.7002 76.3597 86.8939 76.3597 88.674 77.3786L101.62 84.7815C103.401 85.8004 104.497 87.6814 104.497 89.7191V104.528C104.497 106.566 103.401 108.447 101.62 109.466L95.1472 113.168C94.187 113.716 92.9895 113.032 92.9895 111.935V96.4024C92.9895 94.3647 91.8926 92.4837 90.1125 91.4648L87.2355 89.8189C86.3437 89.3095 85.2504 89.3095 84.3585 89.8189L80.7623 91.8745C79.4281 92.6369 78.6046 94.0511 78.6046 95.5759V127.624C78.6046 129.669 79.7122 131.557 81.5032 132.573L82.8913 133.356C84.6678 134.361 86.8507 134.357 88.6237 133.342L116.005 117.681C117.785 116.662 118.882 114.781 118.882 112.744V81.4791C118.882 79.4413 117.785 77.5603 116.005 76.5414L88.674 60.9092C86.8939 59.8903 84.7002 59.8903 82.9201 60.9092L55.5888 76.5414C53.8087 77.5603 52.7118 79.4413 52.7118 81.4791V142.359C52.7118 144.396 53.8087 146.277 55.5888 147.296L82.9201 162.929C84.7002 163.948 86.8939 163.948 88.674 162.929L141.898 132.487C143.678 131.468 144.775 129.587 144.775 127.549V66.6697C144.775 64.632 143.678 62.7509 141.898 61.7321L88.674 31.2905C86.8939 30.2716 84.7002 30.2716 82.9201 31.2905V31.3012Z" stroke="url(#paint3_radial_7895_2693)" stroke-opacity="0.5"/>
<path d="M82.9219 192.472L3.87698 147.264C2.09685 146.245 1 144.364 1 142.326V51.91C1 49.8722 2.09685 47.9912 3.87698 46.9724L82.9219 1.76416C84.702 0.745281 86.8958 0.745281 88.6759 1.76416L167.721 46.9724C169.501 47.9912 170.598 49.8722 170.598 51.91V142.326C170.598 144.364 169.501 146.245 167.721 147.264L88.6759 192.472C86.8958 193.491 84.702 193.491 82.9219 192.472ZM18.2619 139.038L82.9219 176.021C84.702 177.039 86.8958 177.039 88.6759 176.021L153.336 139.038C155.116 138.019 156.213 136.138 156.213 134.101V60.1394C156.213 58.1016 155.116 56.2206 153.336 55.2017L88.6759 18.2194C86.8958 17.2005 84.702 17.2005 82.9219 18.2194L18.2619 55.2017C16.4817 56.2206 15.3849 58.1016 15.3849 60.1394V134.101C15.3849 136.138 16.4817 138.019 18.2619 139.038Z" fill="url(#paint4_radial_7895_2693)" fill-opacity="0.5"/>
<path d="M82.9201 31.3012L29.696 61.7428C27.9159 62.7617 26.819 64.6426 26.819 66.6804V124.272C26.819 128.344 29.0127 132.109 32.573 134.144L39.0462 137.845C40.0064 138.394 41.2039 137.71 41.2039 136.612V74.9098C41.2039 72.8721 42.3007 70.991 44.0809 69.9722L82.9201 47.7599C84.7002 46.7411 86.8939 46.7411 88.674 47.7599L127.513 69.9722C129.293 70.991 130.39 72.8721 130.39 74.9098V119.338C130.39 121.376 129.293 123.257 127.513 124.275L88.674 146.488C86.8939 147.507 84.7002 147.507 82.9201 146.488L69.9737 139.085C68.1935 138.066 67.0967 136.185 67.0967 134.147V89.7191C67.0967 87.6814 68.1935 85.8004 69.9737 84.7815L82.9201 77.3786C84.7002 76.3597 86.8939 76.3597 88.674 77.3786L101.62 84.7815C103.401 85.8004 104.497 87.6814 104.497 89.7191V104.528C104.497 106.566 103.401 108.447 101.62 109.466L95.1472 113.168C94.187 113.716 92.9895 113.032 92.9895 111.935V96.4024C92.9895 94.3647 91.8926 92.4837 90.1125 91.4648L87.2355 89.8189C86.3437 89.3095 85.2504 89.3095 84.3585 89.8189L80.7623 91.8745C79.4281 92.6369 78.6046 94.0511 78.6046 95.5759V127.624C78.6046 129.669 79.7122 131.557 81.5032 132.573L82.8913 133.356C84.6678 134.361 86.8507 134.357 88.6237 133.342L116.005 117.681C117.785 116.662 118.882 114.781 118.882 112.744V81.4791C118.882 79.4413 117.785 77.5603 116.005 76.5414L88.674 60.9092C86.8939 59.8903 84.7002 59.8903 82.9201 60.9092L55.5888 76.5414C53.8087 77.5603 52.7118 79.4413 52.7118 81.4791V142.359C52.7118 144.396 53.8087 146.277 55.5888 147.296L82.9201 162.929C84.7002 163.948 86.8939 163.948 88.674 162.929L141.898 132.487C143.678 131.468 144.775 129.587 144.775 127.549V66.6697C144.775 64.632 143.678 62.7509 141.898 61.7321L88.674 31.2905C86.8939 30.2716 84.7002 30.2716 82.9201 31.2905V31.3012Z" fill="url(#paint5_radial_7895_2693)" fill-opacity="0.5"/>
<path d="M82.9219 192.472L3.87698 147.264C2.09685 146.245 1 144.364 1 142.326V51.91C1 49.8722 2.09685 47.9912 3.87698 46.9724L82.9219 1.76416C84.702 0.745281 86.8958 0.745281 88.6759 1.76416L167.721 46.9724C169.501 47.9912 170.598 49.8722 170.598 51.91V142.326C170.598 144.364 169.501 146.245 167.721 147.264L88.6759 192.472C86.8958 193.491 84.702 193.491 82.9219 192.472ZM18.2619 139.038L82.9219 176.021C84.702 177.039 86.8958 177.039 88.6759 176.021L153.336 139.038C155.116 138.019 156.213 136.138 156.213 134.101V60.1394C156.213 58.1016 155.116 56.2206 153.336 55.2017L88.6759 18.2194C86.8958 17.2005 84.702 17.2005 82.9219 18.2194L18.2619 55.2017C16.4817 56.2206 15.3849 58.1016 15.3849 60.1394V134.101C15.3849 136.138 16.4817 138.019 18.2619 139.038Z" stroke="url(#paint6_linear_7895_2693)"/>
<path d="M82.9201 31.3012L29.696 61.7428C27.9159 62.7617 26.819 64.6426 26.819 66.6804V124.272C26.819 128.344 29.0127 132.109 32.573 134.144L39.0462 137.845C40.0064 138.394 41.2039 137.71 41.2039 136.612V74.9098C41.2039 72.8721 42.3007 70.991 44.0809 69.9722L82.9201 47.7599C84.7002 46.7411 86.8939 46.7411 88.674 47.7599L127.513 69.9722C129.293 70.991 130.39 72.8721 130.39 74.9098V119.338C130.39 121.376 129.293 123.257 127.513 124.275L88.674 146.488C86.8939 147.507 84.7002 147.507 82.9201 146.488L69.9737 139.085C68.1935 138.066 67.0967 136.185 67.0967 134.147V89.7191C67.0967 87.6814 68.1935 85.8004 69.9737 84.7815L82.9201 77.3786C84.7002 76.3597 86.8939 76.3597 88.674 77.3786L101.62 84.7815C103.401 85.8004 104.497 87.6814 104.497 89.7191V104.528C104.497 106.566 103.401 108.447 101.62 109.466L95.1472 113.168C94.187 113.716 92.9895 113.032 92.9895 111.935V96.4024C92.9895 94.3647 91.8926 92.4837 90.1125 91.4648L87.2355 89.8189C86.3437 89.3095 85.2504 89.3095 84.3585 89.8189L80.7623 91.8745C79.4281 92.6369 78.6046 94.0511 78.6046 95.5759V127.624C78.6046 129.669 79.7122 131.557 81.5032 132.573L82.8913 133.356C84.6678 134.361 86.8507 134.357 88.6237 133.342L116.005 117.681C117.785 116.662 118.882 114.781 118.882 112.744V81.4791C118.882 79.4413 117.785 77.5603 116.005 76.5414L88.674 60.9092C86.8939 59.8903 84.7002 59.8903 82.9201 60.9092L55.5888 76.5414C53.8087 77.5603 52.7118 79.4413 52.7118 81.4791V142.359C52.7118 144.396 53.8087 146.277 55.5888 147.296L82.9201 162.929C84.7002 163.948 86.8939 163.948 88.674 162.929L141.898 132.487C143.678 131.468 144.775 129.587 144.775 127.549V66.6697C144.775 64.632 143.678 62.7509 141.898 61.7321L88.674 31.2905C86.8939 30.2716 84.7002 30.2716 82.9201 31.2905V31.3012Z" stroke="url(#paint7_linear_7895_2693)"/>
<defs>
<linearGradient id="paint0_linear_7895_2693" x1="215.172" y1="-7.34467" x2="23.4356" y2="162.668" gradientUnits="userSpaceOnUse">
<stop stop-color="#22645C"/>
<stop offset="1" stop-color="#122B33" stop-opacity="0"/>
</linearGradient>
<linearGradient id="paint1_linear_7895_2693" x1="215.172" y1="-7.34467" x2="23.4356" y2="162.668" gradientUnits="userSpaceOnUse">
<stop stop-color="#22645C"/>
<stop offset="1" stop-color="#122B33" stop-opacity="0"/>
</linearGradient>
<radialGradient id="paint2_radial_7895_2693" cx="0" cy="0" r="1" gradientUnits="userSpaceOnUse" gradientTransform="translate(85.7989 97.1182) rotate(90) scale(96.1182 84.7989)">
<stop offset="0.33754" stop-color="#6CB6AD"/>
<stop offset="1" stop-color="#041412" stop-opacity="0"/>
</radialGradient>
<radialGradient id="paint3_radial_7895_2693" cx="0" cy="0" r="1" gradientUnits="userSpaceOnUse" gradientTransform="translate(85.7989 97.1182) rotate(90) scale(96.1182 84.7989)">
<stop offset="0.33754" stop-color="#6CB6AD"/>
<stop offset="1" stop-color="#041412" stop-opacity="0"/>
</radialGradient>
<radialGradient id="paint4_radial_7895_2693" cx="0" cy="0" r="1" gradientUnits="userSpaceOnUse" gradientTransform="translate(85.7989 97.1182) rotate(90) scale(96.1182 84.7989)">
<stop offset="0.192755" stop-color="#8869F5"/>
<stop offset="0.718585" stop-color="#041412"/>
</radialGradient>
<radialGradient id="paint5_radial_7895_2693" cx="0" cy="0" r="1" gradientUnits="userSpaceOnUse" gradientTransform="translate(85.7989 97.1182) rotate(90) scale(96.1182 84.7989)">
<stop offset="0.192755" stop-color="#8869F5"/>
<stop offset="0.718585" stop-color="#041412"/>
</radialGradient>
<linearGradient id="paint6_linear_7895_2693" x1="215.172" y1="-7.34467" x2="23.4356" y2="162.668" gradientUnits="userSpaceOnUse">
<stop stop-color="#22645C"/>
<stop offset="1" stop-color="#122B33" stop-opacity="0"/>
</linearGradient>
<linearGradient id="paint7_linear_7895_2693" x1="215.172" y1="-7.34467" x2="23.4356" y2="162.668" gradientUnits="userSpaceOnUse">
<stop stop-color="#22645C"/>
<stop offset="1" stop-color="#122B33" stop-opacity="0"/>
</linearGradient>
</defs>
</svg>
