<svg width="54" height="65" viewBox="0 0 54 65" fill="none" xmlns="http://www.w3.org/2000/svg">
<path fill-rule="evenodd" clip-rule="evenodd" d="M25.4204 0.273347L1.64526 11.411C0.640144 11.8816 0 12.8832 0 13.9852V39.1418C0 39.7129 0.173795 40.2696 0.498212 40.7431L9.81941 54.3316C10.0309 54.6415 10.3031 54.9055 10.616 55.1093L25.0699 64.5308C26.0287 65.1564 27.2713 65.1564 28.2301 64.5308L42.684 55.1093C42.9998 54.9055 43.2691 54.6386 43.4806 54.3316L52.8018 40.7431C53.1262 40.2725 53.3 39.7129 53.3 39.1418V13.9852C53.3 12.8832 52.6599 11.8816 51.6547 11.411L27.8767 0.273347C27.1004 -0.0911158 26.1967 -0.0911158 25.4204 0.273347Z" fill="#C1F6FF"/>
<path fill-rule="evenodd" clip-rule="evenodd" d="M14.1394 45.6262C14.1394 46.0425 14.4846 46.3875 14.9105 46.3875H38.223C38.6428 46.3875 38.9941 46.0466 38.9941 45.6262C38.9941 38.8987 33.4302 33.4451 26.5668 33.4451C19.7033 33.4451 14.1394 38.8987 14.1394 45.6262ZM26.5668 31.9225C30.4275 31.9225 33.5572 28.8548 33.5572 25.0706C33.5572 21.2864 30.4275 18.2188 26.5668 18.2188C22.7061 18.2188 19.5764 21.2864 19.5764 25.0706C19.5764 28.8548 22.7061 31.9225 26.5668 31.9225Z" fill="#010101"/>
</svg>
